<svg width="80" height="49" viewBox="0 0 80 49" fill="none" xmlns="http://www.w3.org/2000/svg">
<g filter="url(#filter0_b_906_80)">
<path d="M0 40C0 17.9086 17.9086 0 40 0C62.0914 0 80 17.9086 80 40V49H0V40Z" fill="white" fill-opacity="0.2"/>
</g>
<path fill-rule="evenodd" clip-rule="evenodd" d="M26.0457 30.304C25.664 30.304 25.3652 30.5702 25.3652 30.9586C25.3652 31.3473 25.6655 31.6119 26.0457 31.6119C26.4256 31.6119 26.7262 31.3455 26.7262 30.9586C26.7262 30.5702 26.4271 30.304 26.0457 30.304ZM26.0457 31.4247C25.7735 31.4247 25.5717 31.2266 25.5717 30.9586C25.5717 30.6908 25.772 30.4911 26.0457 30.4911C26.316 30.4911 26.5195 30.6939 26.5195 30.9586C26.5195 31.2217 26.3143 31.4247 26.0457 31.4247ZM32.6675 28.0143H29.3547L29.7312 22.274L27.5799 28.0143H24.5035L29.3847 15.0397H32.658L32.2802 20.8587L34.4723 15.0397H37.5489L32.6675 28.0143ZM33.0671 28.0143L37.948 15.0397H41.0243L36.1435 28.0143H33.0671Z" fill="#1D1E20"/>
<path fill-rule="evenodd" clip-rule="evenodd" d="M24.1488 23.5422C19.8499 28.575 15.7947 35.2714 19.3766 38.3551C22.8475 41.3433 27.1859 39.5741 30.1439 38.3944C33.102 37.2148 65.7976 23.0605 65.7976 23.0605C66.1131 22.9032 66.0541 22.7066 65.6596 22.8048C65.5006 22.8444 30.0652 32.4179 30.0652 32.4179C25.5686 33.6762 20.4414 30.9337 24.1488 23.5422Z" fill="#1D1E20"/>
<path fill-rule="evenodd" clip-rule="evenodd" d="M26.1616 31.0047C26.257 31.0001 26.3316 30.951 26.3316 30.8193C26.3316 30.6495 26.2203 30.6068 26.0343 30.6068H25.7671V31.3108H25.9453V31.0111H25.9754L26.1377 31.3108H26.3427L26.1616 31.0047ZM26.0472 30.8907H25.9456V30.7273H26.0313C26.0839 30.7273 26.1441 30.7334 26.1441 30.8017C26.1441 30.8748 26.1093 30.8907 26.0472 30.8907ZM56.9702 15C56.5885 15 56.2897 15.2665 56.2897 15.6546C56.2897 16.0431 56.5903 16.3077 56.9702 16.3077C57.3501 16.3077 57.6507 16.0413 57.6507 15.6546C57.651 15.2665 57.3521 15 56.9702 15ZM56.9702 16.1211C56.698 16.1211 56.4961 15.9229 56.4961 15.6549C56.4961 15.3872 56.6965 15.1874 56.9702 15.1874C57.2405 15.1874 57.4442 15.3902 57.4442 15.6549C57.4442 15.918 57.239 16.1211 56.9702 16.1211Z" fill="#1D1E20"/>
<path fill-rule="evenodd" clip-rule="evenodd" d="M57.0864 15.7007C57.1818 15.6961 57.2567 15.647 57.2567 15.5153C57.2567 15.3455 57.1451 15.3028 56.9594 15.3028H56.6921V16.0065H56.8702V15.7071H56.9004L57.0625 16.0065H57.2678L57.0864 15.7007ZM56.9717 15.5866H56.8702V15.4232H56.9561C57.0084 15.4232 57.069 15.4296 57.069 15.4979C57.069 15.5708 57.0338 15.5866 56.9717 15.5866ZM54.9433 17.2022L55.77 15.0397H46.3832L43.1602 18.9322L44.6482 15.0397H41.5323L36.6904 28.0144H39.7668L41.834 22.5887L41.9756 28.0144L51.4149 27.994L52.3135 25.4982H48.7247L49.9038 22.3529H52.8617L53.7718 19.9348H50.8139L51.8279 17.2022H54.9433ZM45.0276 27.1494L44.8303 20.3869L49.4816 15.2959L45.0276 27.1494Z" fill="#1D1E20"/>
<defs>
<filter id="filter0_b_906_80" x="-60" y="-60" width="200" height="169" filterUnits="userSpaceOnUse" color-interpolation-filters="sRGB">
<feFlood flood-opacity="0" result="BackgroundImageFix"/>
<feGaussianBlur in="BackgroundImageFix" stdDeviation="30"/>
<feComposite in2="SourceAlpha" operator="in" result="effect1_backgroundBlur_906_80"/>
<feBlend mode="normal" in="SourceGraphic" in2="effect1_backgroundBlur_906_80" result="shape"/>
</filter>
</defs>
</svg>
