<svg width="57" height="13" viewBox="0 0 57 13" fill="none" xmlns="http://www.w3.org/2000/svg">
<path d="M5.54894 2.92705C5.8483 2.00574 7.1517 2.00574 7.45106 2.92705L7.73483 3.80041C7.8687 4.21243 8.25266 4.49139 8.68588 4.49139H9.60419C10.5729 4.49139 10.9757 5.73101 10.192 6.30041L9.44905 6.84017C9.09856 7.09481 8.9519 7.54618 9.08578 7.9582L9.36955 8.83156C9.6689 9.75287 8.61442 10.519 7.83071 9.94959L7.08779 9.40983C6.7373 9.15519 6.2627 9.15519 5.91221 9.40983L5.16929 9.94959C4.38558 10.519 3.3311 9.75287 3.63045 8.83156L3.91422 7.9582C4.0481 7.54618 3.90144 7.09481 3.55095 6.84017L2.80803 6.30041C2.02432 5.73101 2.42709 4.49139 3.39582 4.49139H4.31412C4.74734 4.49139 5.1313 4.21243 5.26517 3.80041L5.54894 2.92705Z" fill="#FF981F"/>
<path d="M16.5489 2.92705C16.8483 2.00574 18.1517 2.00574 18.4511 2.92705L18.7348 3.80041C18.8687 4.21243 19.2527 4.49139 19.6859 4.49139H20.6042C21.5729 4.49139 21.9757 5.73101 21.192 6.30041L20.449 6.84017C20.0986 7.09481 19.9519 7.54618 20.0858 7.9582L20.3695 8.83156C20.6689 9.75287 19.6144 10.519 18.8307 9.94959L18.0878 9.40983C17.7373 9.15519 17.2627 9.15519 16.9122 9.40983L16.1693 9.94959C15.3856 10.519 14.3311 9.75287 14.6305 8.83156L14.9142 7.9582C15.0481 7.54618 14.9014 7.09481 14.551 6.84017L13.808 6.30041C13.0243 5.73101 13.4271 4.49139 14.3958 4.49139H15.3141C15.7473 4.49139 16.1313 4.21243 16.2652 3.80041L16.5489 2.92705Z" fill="#FF981F"/>
<path d="M27.5489 2.92705C27.8483 2.00574 29.1517 2.00574 29.4511 2.92705L29.7348 3.80041C29.8687 4.21243 30.2527 4.49139 30.6859 4.49139H31.6042C32.5729 4.49139 32.9757 5.73101 32.192 6.30041L31.449 6.84017C31.0986 7.09481 30.9519 7.54618 31.0858 7.9582L31.3695 8.83156C31.6689 9.75287 30.6144 10.519 29.8307 9.94959L29.0878 9.40983C28.7373 9.15519 28.2627 9.15519 27.9122 9.40983L27.1693 9.94959C26.3856 10.519 25.3311 9.75287 25.6305 8.83156L25.9142 7.9582C26.0481 7.54618 25.9014 7.09481 25.551 6.84017L24.808 6.30041C24.0243 5.73101 24.4271 4.49139 25.3958 4.49139H26.3141C26.7473 4.49139 27.1313 4.21243 27.2652 3.80041L27.5489 2.92705Z" fill="#FF981F"/>
<path d="M38.5489 2.92705C38.8483 2.00574 40.1517 2.00574 40.4511 2.92705L40.7348 3.80041C40.8687 4.21243 41.2527 4.49139 41.6859 4.49139H42.6042C43.5729 4.49139 43.9757 5.73101 43.192 6.30041L42.449 6.84017C42.0986 7.09481 41.9519 7.54618 42.0858 7.9582L42.3695 8.83156C42.6689 9.75287 41.6144 10.519 40.8307 9.94959L40.0878 9.40983C39.7373 9.15519 39.2627 9.15519 38.9122 9.40983L38.1693 9.94959C37.3856 10.519 36.3311 9.75287 36.6305 8.83156L36.9142 7.9582C37.0481 7.54618 36.9014 7.09481 36.551 6.84017L35.808 6.30041C35.0243 5.73101 35.4271 4.49139 36.3958 4.49139H37.3141C37.7473 4.49139 38.1313 4.21243 38.2652 3.80041L38.5489 2.92705Z" fill="#FF981F"/>
<path d="M49.7867 3.00431C50.0112 2.31332 50.9888 2.31332 51.2133 3.0043L51.4971 3.87766C51.6644 4.39269 52.1444 4.74139 52.6859 4.74139H53.6042C54.3307 4.74139 54.6328 5.6711 54.045 6.09815L53.3021 6.63792C52.864 6.95622 52.6807 7.52043 52.848 8.03546L53.1318 8.90881C53.3563 9.5998 52.5654 10.1744 51.9777 9.74734L51.2347 9.20758C50.7966 8.88927 50.2034 8.88927 49.7653 9.20758L49.0223 9.74734C48.4346 10.1744 47.6437 9.5998 47.8682 8.90881L48.152 8.03546C48.3193 7.52043 48.136 6.95622 47.6979 6.63792L46.955 6.09815C46.3672 5.6711 46.6693 4.74139 47.3958 4.74139H48.3141C48.8556 4.74139 49.3356 4.39269 49.5029 3.87766L49.7867 3.00431Z" stroke="#8F959E" stroke-width="0.5"/>
</svg>
